<?xml version="1.0" standalone="no"?>
<!DOCTYPE svg PUBLIC "-//W3C//DTD SVG 20010904//EN"
 "http://www.w3.org/TR/2001/REC-SVG-20010904/DTD/svg10.dtd">
<svg version="1.0" xmlns="http://www.w3.org/2000/svg"
 width="128.000000pt" height="128.000000pt" viewBox="0 0 128.000000 128.000000"
 preserveAspectRatio="xMidYMid meet">
<metadata>
Created by potrace 1.14, written by Peter Selinger 2001-2017
</metadata>
<g transform="translate(0.000000,128.000000) scale(0.100000,-0.100000)"
fill="#000000" stroke="none">
<path d="M792 944 c-25 -63 -26 -81 -11 -121 8 -22 12 -24 20 -13 8 13 10 13
18 1 12 -19 38 22 46 74 6 41 -17 105 -41 112 -6 2 -21 -22 -32 -53z"/>
<path d="M350 968 c-130 -53 -215 -123 -259 -213 -25 -51 -38 -135 -27 -179
14 -57 92 -116 153 -116 26 0 88 28 80 37 -3 2 -14 0 -25 -6 -51 -27 -128 2
-158 60 -11 23 -15 49 -12 89 12 164 170 320 325 320 32 0 71 -6 86 -12 26
-13 67 -79 67 -109 0 -28 -60 -206 -106 -315 -37 -89 -84 -217 -84 -229 0 -2
7 -6 16 -9 31 -12 90 47 254 250 30 38 93 108 139 156 l85 88 92 0 c87 0 94 2
140 33 49 33 114 116 114 146 0 14 -10 16 -72 14 -166 -7 -176 -10 -230 -64
-55 -55 -56 -79 -2 -49 39 22 54 25 54 10 0 -5 -9 -10 -20 -10 -11 0 -20 -4
-20 -10 0 -5 -7 -10 -15 -10 -22 0 -191 -171 -285 -290 -91 -115 -150 -180
-162 -180 -13 0 2 48 39 130 139 301 148 411 41 466 -32 16 -170 18 -208 2z
m670 -78 c0 -5 -4 -10 -10 -10 -5 0 -10 5 -10 10 0 6 5 10 10 10 6 0 10 -4 10
-10z"/>
<path d="M248 684 c-22 -11 -28 -22 -28 -47 0 -40 15 -57 51 -57 35 0 56 24
39 45 -14 17 -35 15 -35 -3 0 -18 -18 -17 -30 2 -8 13 -6 20 9 32 25 18 47 18
72 0 25 -19 24 -90 -1 -131 l-19 -30 27 24 c39 35 52 82 33 119 -16 30 -56 62
-78 62 -7 -1 -25 -8 -40 -16z"/>
</g>
</svg>
